<svg width="75" height="39" viewBox="0 0 75 39" fill="none" xmlns="http://www.w3.org/2000/svg">
<path d="M3.30256 19H0.490057L5.6108 4.45455H8.86364L13.9915 19H11.179L7.29403 7.4375H7.1804L3.30256 19ZM3.39489 13.2969H11.0653V15.4134H3.39489V13.2969ZM27.8604 4.45455V19H25.5167L18.663 9.09233H18.5423V19H15.9073V4.45455H18.2653L25.1119 14.3693H25.2397V4.45455H27.8604ZM35.6605 19H30.7315V4.45455H35.7599C37.2041 4.45455 38.4446 4.74574 39.4815 5.32812C40.5232 5.90578 41.3234 6.73674 41.8821 7.82102C42.4408 8.9053 42.7202 10.2027 42.7202 11.7131C42.7202 13.2282 42.4384 14.5303 41.875 15.6193C41.3163 16.7083 40.509 17.544 39.4531 18.1264C38.402 18.7088 37.1378 19 35.6605 19ZM33.3665 16.7202H35.5327C36.5459 16.7202 37.3911 16.5355 38.0682 16.1662C38.7453 15.7921 39.2543 15.2358 39.5952 14.4972C39.9361 13.7538 40.1065 12.8258 40.1065 11.7131C40.1065 10.6004 39.9361 9.67708 39.5952 8.94318C39.2543 8.20455 38.75 7.65294 38.0824 7.28835C37.4195 6.91903 36.5956 6.73438 35.6108 6.73438H33.3665V16.7202ZM43.4091 4.45455H46.3849L49.9432 10.8892H50.0852L53.6435 4.45455H56.6193L51.3281 13.5739V19H48.7003V13.5739L43.4091 4.45455ZM60.1474 4.45455V9.80966H58.1871V4.45455H60.1474ZM70.6481 8.45312C70.5818 7.83286 70.3024 7.34991 69.81 7.00426C69.3223 6.65862 68.6879 6.4858 67.9066 6.4858C67.3574 6.4858 66.8862 6.56866 66.4933 6.73438C66.1003 6.90009 65.7996 7.125 65.5913 7.40909C65.3829 7.69318 65.2764 8.01752 65.2717 8.3821C65.2717 8.68513 65.3403 8.94792 65.4776 9.17045C65.6197 9.39299 65.8114 9.58239 66.0529 9.73864C66.2944 9.89015 66.5619 10.018 66.8555 10.1222C67.149 10.2263 67.445 10.3139 67.7433 10.3849L69.1069 10.7259C69.6561 10.8537 70.1841 11.0265 70.6907 11.2443C71.2021 11.4621 71.659 11.7367 72.0614 12.0682C72.4686 12.3996 72.7906 12.7997 73.0273 13.2685C73.2641 13.7372 73.3825 14.2865 73.3825 14.9162C73.3825 15.7685 73.1647 16.5189 72.729 17.1676C72.2934 17.8116 71.6637 18.3158 70.8398 18.6804C70.0207 19.0402 69.0288 19.2202 67.864 19.2202C66.7324 19.2202 65.7499 19.045 64.9165 18.6946C64.0879 18.3442 63.4393 17.8329 62.9705 17.1605C62.5065 16.4882 62.2556 15.669 62.2177 14.7031H64.81C64.8479 15.2098 65.0041 15.6312 65.2788 15.9673C65.5534 16.3035 65.9109 16.5545 66.3512 16.7202C66.7963 16.8859 67.2934 16.9688 67.8427 16.9688C68.4156 16.9688 68.9175 16.8835 69.3484 16.7131C69.784 16.5379 70.1249 16.2964 70.3711 15.9886C70.6173 15.6761 70.7428 15.3116 70.7475 14.8949C70.7428 14.5161 70.6315 14.2036 70.4137 13.9574C70.1959 13.7064 69.8905 13.4981 69.4975 13.3324C69.1093 13.1619 68.6547 13.0104 68.1339 12.8778L66.479 12.4517C65.2811 12.1439 64.3342 11.6776 63.6381 11.0526C62.9469 10.4228 62.6012 9.58712 62.6012 8.54545C62.6012 7.68845 62.8332 6.93797 63.2972 6.29403C63.766 5.65009 64.4028 5.15057 65.2077 4.79545C66.0127 4.43561 66.9241 4.25568 67.9421 4.25568C68.9743 4.25568 69.8787 4.43561 70.6552 4.79545C71.4364 5.15057 72.0496 5.64536 72.4947 6.27983C72.9397 6.90956 73.1694 7.634 73.1836 8.45312H70.6481Z" fill="white"/>
<path d="M38.3892 28.9091C38.3369 28.3828 38.1045 27.9643 37.6921 27.6534C37.2797 27.3426 36.7611 27.1871 36.1364 27.1871C35.6963 27.1871 35.3085 27.2625 34.973 27.4134C34.6406 27.5642 34.379 27.7734 34.1882 28.0412C34.0005 28.3059 33.9066 28.6075 33.9066 28.946C33.9066 29.1953 33.9605 29.4138 34.0682 29.6016C34.1759 29.7893 34.3205 29.9509 34.5021 30.0863C34.6868 30.2186 34.8899 30.3325 35.1115 30.4279C35.3362 30.5233 35.5624 30.6033 35.7901 30.668L36.7873 30.9542C37.0889 31.0373 37.3905 31.1435 37.6921 31.2727C37.9937 31.402 38.2692 31.5651 38.5185 31.7621C38.7708 31.956 38.9724 32.1945 39.1232 32.4776C39.2771 32.7577 39.354 33.0947 39.354 33.4886C39.354 33.9934 39.2232 34.4473 38.9616 34.8505C38.7 35.2537 38.3246 35.5737 37.8352 35.8107C37.3459 36.0446 36.7596 36.1616 36.0763 36.1616C35.4331 36.1616 34.8745 36.0554 34.4006 35.843C33.9266 35.6276 33.5542 35.3306 33.2834 34.9521C33.0125 34.5735 32.8602 34.1349 32.8263 33.6364H33.7127C33.7435 34.0088 33.8666 34.3242 34.082 34.5827C34.2975 34.8413 34.5775 35.0382 34.9222 35.1737C35.2669 35.306 35.6516 35.3722 36.0763 35.3722C36.5472 35.3722 36.9658 35.2937 37.332 35.1367C37.7013 34.9767 37.9906 34.7551 38.1999 34.4719C38.4123 34.1857 38.5185 33.8533 38.5185 33.4748C38.5185 33.1547 38.4354 32.887 38.2692 32.6715C38.103 32.453 37.8706 32.2699 37.5721 32.1222C37.2766 31.9744 36.9335 31.8436 36.5426 31.7298L35.4116 31.3974C34.6699 31.1758 34.0943 30.8696 33.685 30.4787C33.2757 30.0878 33.071 29.5893 33.071 28.983C33.071 28.4751 33.2064 28.0289 33.4773 27.6442C33.7512 27.2564 34.1205 26.9548 34.5852 26.7393C35.053 26.5208 35.5778 26.4116 36.1594 26.4116C36.7473 26.4116 37.2674 26.5193 37.7198 26.7347C38.1722 26.9502 38.5308 27.2472 38.7955 27.6257C39.0632 28.0012 39.2063 28.429 39.2248 28.9091H38.3892ZM41.4315 36V26.5455H42.2947V30.8803H47.6591V26.5455H48.5224V36H47.6591V31.6559H42.2947V36H41.4315ZM51.0291 36V26.5455H56.5135V27.321H51.8924V30.8803H56.2227V31.6559H51.8924V35.2244H56.6058V36H51.0291ZM61.5178 36H58.7479V26.5455H61.6839C62.5857 26.5455 63.3567 26.7332 63.9968 27.1087C64.64 27.4841 65.1325 28.0227 65.4741 28.7244C65.8157 29.4261 65.9865 30.2679 65.9865 31.2496C65.9865 32.2406 65.8111 33.0916 65.4602 33.8026C65.1125 34.5104 64.6046 35.0536 63.9368 35.4322C63.272 35.8107 62.4657 36 61.5178 36ZM59.6112 35.2244H61.467C62.2795 35.2244 62.9596 35.0644 63.5075 34.7443C64.0553 34.4242 64.4661 33.9672 64.7401 33.3732C65.014 32.7792 65.1509 32.0714 65.1509 31.2496C65.1478 30.4341 65.0124 29.7324 64.7447 29.1445C64.48 28.5567 64.0861 28.1058 63.5629 27.7919C63.0427 27.478 62.3995 27.321 61.6332 27.321H59.6112V35.2244ZM73.2124 28.9091C73.1601 28.3828 72.9278 27.9643 72.5154 27.6534C72.103 27.3426 71.5844 27.1871 70.9596 27.1871C70.5195 27.1871 70.1317 27.2625 69.7963 27.4134C69.4639 27.5642 69.2023 27.7734 69.0115 28.0412C68.8237 28.3059 68.7298 28.6075 68.7298 28.946C68.7298 29.1953 68.7837 29.4138 68.8914 29.6016C68.9991 29.7893 69.1438 29.9509 69.3254 30.0863C69.51 30.2186 69.7132 30.3325 69.9347 30.4279C70.1594 30.5233 70.3856 30.6033 70.6134 30.668L71.6105 30.9542C71.9121 31.0373 72.2137 31.1435 72.5154 31.2727C72.817 31.402 73.0924 31.5651 73.3417 31.7621C73.5941 31.956 73.7957 32.1945 73.9465 32.4776C74.1003 32.7577 74.1773 33.0947 74.1773 33.4886C74.1773 33.9934 74.0465 34.4473 73.7849 34.8505C73.5233 35.2537 73.1478 35.5737 72.6585 35.8107C72.1691 36.0446 71.5828 36.1616 70.8996 36.1616C70.2564 36.1616 69.6978 36.0554 69.2238 35.843C68.7499 35.6276 68.3775 35.3306 68.1066 34.9521C67.8358 34.5735 67.6834 34.1349 67.6496 33.6364H68.536C68.5667 34.0088 68.6898 34.3242 68.9053 34.5827C69.1207 34.8413 69.4008 35.0382 69.7455 35.1737C70.0902 35.306 70.4749 35.3722 70.8996 35.3722C71.3705 35.3722 71.789 35.2937 72.1553 35.1367C72.5246 34.9767 72.8139 34.7551 73.0232 34.4719C73.2355 34.1857 73.3417 33.8533 73.3417 33.4748C73.3417 33.1547 73.2586 32.887 73.0924 32.6715C72.9262 32.453 72.6939 32.2699 72.3953 32.1222C72.0999 31.9744 71.7567 31.8436 71.3659 31.7298L70.2348 31.3974C69.4931 31.1758 68.9176 30.8696 68.5083 30.4787C68.0989 30.0878 67.8943 29.5893 67.8943 28.983C67.8943 28.4751 68.0297 28.0289 68.3005 27.6442C68.5744 27.2564 68.9437 26.9548 69.4085 26.7393C69.8763 26.5208 70.401 26.4116 70.9827 26.4116C71.5705 26.4116 72.0906 26.5193 72.5431 26.7347C72.9955 26.9502 73.354 27.2472 73.6187 27.6257C73.8865 28.0012 74.0296 28.429 74.048 28.9091H73.2124Z" fill="#A3A3A3"/>
<line x1="6" y1="31.5" x2="26" y2="31.5" stroke="#F59E0B"/>
</svg>
